<svg width="50" height="50" viewBox="0 0 50 50" fill="none" xmlns="http://www.w3.org/2000/svg">
<path d="M8.74023 22.6087V32.8051C8.74023 36.539 8.74023 36.539 12.269 38.9188L21.973 44.5197C23.4297 45.3608 25.8095 45.3608 27.2661 44.5197L36.9702 38.9188C40.4989 36.539 40.4989 36.539 40.4989 32.8051V22.6087C40.4989 18.8748 40.4989 18.8748 36.9702 16.4949L27.2661 10.894C25.8095 10.0529 23.4297 10.0529 21.973 10.894L12.269 16.4949C8.74023 18.8748 8.74023 18.8748 8.74023 22.6087Z" stroke="#CAE366" stroke-width="3.07739" stroke-linecap="round" stroke-linejoin="round"/>
<path d="M35.9025 15.6538V10.2581C35.9025 6.15487 33.8509 4.10327 29.7477 4.10327H19.4897C15.3866 4.10327 13.335 6.15487 13.335 10.2581V15.5101" stroke="#CAE366" stroke-width="3.07739" stroke-linecap="round" stroke-linejoin="round"/>
<path d="M25.9116 22.547L27.0811 24.3729C27.2657 24.6601 27.676 24.9473 27.9838 25.0294L30.0764 25.5628C31.3689 25.8911 31.7177 26.9989 30.8765 28.0247L29.5019 29.6865C29.2968 29.9532 29.1327 30.4251 29.1532 30.7533L29.2763 32.9075C29.3583 34.2411 28.4146 34.9181 27.1836 34.4257L25.1731 33.6256C24.8653 33.5025 24.3524 33.5025 24.0447 33.6256L22.0341 34.4257C20.8032 34.9181 19.8594 34.2205 19.9415 32.9075L20.0646 30.7533C20.0851 30.4251 19.921 29.9327 19.7158 29.6865L18.3413 28.0247C17.5001 26.9989 17.8489 25.8911 19.1414 25.5628L21.234 25.0294C21.5623 24.9473 21.9726 24.6396 22.1367 24.3729L23.3061 22.547C24.0447 21.4391 25.1936 21.4391 25.9116 22.547Z" stroke="#CAE366" stroke-width="3.07739" stroke-linecap="round" stroke-linejoin="round"/>
</svg>
