<svg width="31" height="31" viewBox="0 0 31 31" fill="none" xmlns="http://www.w3.org/2000/svg">
<path d="M15.0072 16.3127C13.6072 16.3127 12.4239 16.8131 11.4572 17.8139C10.4906 18.8147 10.0072 19.999 10.0072 21.3667C10.0072 22.7344 10.4906 23.9187 11.4572 24.9195C12.4239 25.9203 13.6072 26.4206 15.0072 26.4206C16.4072 26.4206 17.5906 25.9203 18.5572 24.9195C19.5239 23.9187 20.0072 22.7344 20.0072 21.3667C20.0072 19.999 19.5239 18.8147 18.5572 17.8139C17.5906 16.8131 16.4072 16.3127 15.0072 16.3127ZM17.4072 20.3159L14.7072 23.018C14.6406 23.1514 14.5406 23.2181 14.4072 23.2181C14.2739 23.2181 14.1739 23.1514 14.1072 23.018L12.6072 21.6169C12.4739 21.5502 12.4072 21.4501 12.4072 21.3167C12.4072 21.1832 12.4572 21.0665 12.5572 20.9664C12.6572 20.8663 12.7739 20.8163 12.9072 20.8163C13.0406 20.8163 13.1406 20.8496 13.2072 20.9163L14.4072 22.1173L16.8072 19.7154C16.8739 19.582 16.9739 19.5152 17.1072 19.5152C17.2406 19.5152 17.3572 19.5653 17.4572 19.6654C17.5572 19.7654 17.6072 19.8822 17.6072 20.0156C17.6072 20.1491 17.5406 20.2492 17.4072 20.3159ZM28.9072 9.70758L16.2072 0.400295C15.8072 0.200138 15.3906 0.100061 14.9572 0.100061C14.5239 0.100061 14.1406 0.200138 13.8072 0.400295L1.10724 9.70758C0.640578 10.0412 0.373911 10.4748 0.307244 11.0086C0.240578 11.5423 0.357244 12.0261 0.657244 12.4597C0.957244 12.8934 1.37391 13.1603 1.90724 13.2604C2.44058 13.3604 2.94058 13.2437 3.40724 12.9101L4.40724 12.2095V24.9195C4.40724 25.3865 4.57391 25.7868 4.90724 26.1204C5.24058 26.454 5.64058 26.6208 6.10724 26.6208H8.10724L9.90724 28.4222C9.97391 28.4889 10.0739 28.5223 10.2072 28.5223C10.3406 28.5223 10.4739 28.4889 10.6072 28.4222L11.2072 27.7217C11.8739 28.0553 12.5406 28.3221 13.2072 28.5223V29.5231C13.2072 29.6565 13.2572 29.7566 13.3572 29.8233C13.4572 29.89 13.5406 29.9234 13.6072 29.9234H16.4072C16.4739 29.9234 16.5572 29.89 16.6572 29.8233C16.7572 29.7566 16.8072 29.6565 16.8072 29.5231V28.5223C17.4739 28.3221 18.1406 28.0553 18.8072 27.7217L19.4072 28.4222C19.5406 28.4889 19.6739 28.5223 19.8072 28.5223C19.9406 28.5223 20.0406 28.4889 20.1072 28.4222L21.9072 26.6208H23.9072C24.3739 26.6208 24.7739 26.454 25.1072 26.1204C25.4406 25.7868 25.6072 25.3865 25.6072 24.9195V12.2095L26.6072 12.9101C26.9406 13.177 27.3406 13.3104 27.8072 13.3104L28.1072 13.2103C28.6406 13.1436 29.0572 12.8934 29.3572 12.4597C29.6572 12.0261 29.7739 11.5423 29.7072 11.0086C29.6406 10.4748 29.3739 10.0412 28.9072 9.70758ZM20.4072 25.5199L21.0072 26.1204L19.8072 27.4214L19.2072 26.821C19.0072 26.6208 18.8072 26.5874 18.6072 26.7209C17.8739 27.1879 17.1072 27.5215 16.3072 27.7217C16.0406 27.7217 15.9072 27.8551 15.9072 28.122V29.0227H14.1072V28.122C14.1072 27.8551 13.9739 27.7217 13.7072 27.7217C12.9072 27.5215 12.1406 27.1879 11.4072 26.7209C11.2072 26.5874 11.0072 26.6208 10.8072 26.821L10.2072 27.4214L9.00725 26.1204L9.60724 25.5199C9.80725 25.3198 9.84058 25.1196 9.70724 24.9195C9.24058 24.2523 8.90724 23.485 8.70724 22.6177C8.64058 22.3508 8.47391 22.2174 8.20724 22.2174H7.40724V20.516H8.20724C8.47391 20.516 8.64058 20.3826 8.70724 20.1157C8.90724 19.3151 9.24058 18.5478 9.70724 17.8139C9.84058 17.6138 9.80725 17.4136 9.60724 17.2134L9.00725 16.613L10.2072 15.312L10.8072 16.0125C11.0072 16.1459 11.2072 16.1459 11.4072 16.0125C12.1406 15.5455 12.9072 15.2452 13.7072 15.1118C13.9739 15.0451 14.1072 14.8783 14.1072 14.6114V13.7107H15.9072V14.6114C15.9072 14.8783 16.0406 15.0451 16.3072 15.1118C17.1072 15.2452 17.8739 15.5455 18.6072 16.0125C18.8072 16.1459 19.0072 16.1459 19.2072 16.0125L19.8072 15.312L21.0072 16.613L20.4072 17.2134C20.2072 17.4136 20.1739 17.6138 20.3072 17.8139C20.7739 18.5478 21.1072 19.3151 21.3072 20.1157C21.3739 20.3826 21.5406 20.516 21.8072 20.516H22.6072V22.2174H21.8072C21.5406 22.2174 21.3739 22.3508 21.3072 22.6177C21.1072 23.485 20.7739 24.2523 20.3072 24.9195C20.1739 25.1196 20.2072 25.3198 20.4072 25.5199ZM28.6072 11.9093C28.4739 12.1762 28.2572 12.3263 27.9572 12.3596C27.6572 12.393 27.4072 12.3096 27.2072 12.1095L15.3072 3.50272C15.1072 3.36928 14.9072 3.36928 14.7072 3.50272L2.80724 12.1095C2.60724 12.3096 2.35724 12.393 2.05724 12.3596C1.75724 12.3263 1.52391 12.1929 1.35724 11.9593C1.19058 11.7258 1.14058 11.4589 1.20724 11.1587C1.27391 10.8585 1.40724 10.6416 1.60724 10.5082L14.4072 1.20092C14.6072 1.06748 14.8072 1.00076 15.0072 1.00076C15.2072 1.00076 15.4072 1.06748 15.6072 1.20092L28.4072 10.5082C28.6072 10.6416 28.7406 10.8585 28.8072 11.1587C28.8739 11.4589 28.8072 11.7091 28.6072 11.9093Z" fill="#16243E"/>
</svg>
