

<svg width="31" height="31" viewBox="0 0 31 31" fill="none" xmlns="http://www.w3.org/2000/svg">
<path d="M6.10258 3.6029H8.30258C8.50258 3.6029 8.66925 3.66962 8.80258 3.80306C8.93592 3.93649 9.00258 4.10329 9.00258 4.30345V4.80384L5.40258 7.40587V4.30345C5.40258 4.10329 5.48592 3.93649 5.65258 3.80306C5.81925 3.66962 5.96925 3.6029 6.10258 3.6029ZM5.40258 14.8117V25.0197C5.40258 25.8203 5.70258 26.5041 6.30258 27.0713C6.90258 27.6384 7.60258 27.9219 8.40258 27.9219H21.6026C22.4026 27.9219 23.1026 27.6384 23.7026 27.0713C24.3026 26.5041 24.6026 25.8203 24.6026 25.0197V14.8117L15.0026 7.90627L5.40258 14.8117ZM14.5026 12.3097C14.5693 12.4431 14.5693 12.5766 14.5026 12.71C14.4359 12.8435 14.3359 12.9269 14.2026 12.9602C14.0693 12.9936 13.9526 12.9936 13.8526 12.9602C13.7526 12.9269 13.6693 12.8268 13.6026 12.66C13.5359 12.4932 13.3859 12.4265 13.1526 12.4598C12.9193 12.4932 12.8026 12.5766 12.8026 12.71C12.8026 12.8435 12.9693 12.9102 13.3026 12.9102C14.1026 13.0436 14.5359 13.4106 14.6026 14.011V14.1111C14.6026 14.378 14.5193 14.6115 14.3526 14.8117C14.1859 15.0118 13.9693 15.1453 13.7026 15.212C13.7026 15.3454 13.6526 15.4622 13.5526 15.5623C13.4526 15.6623 13.3359 15.7124 13.2026 15.7124C13.0693 15.7124 12.9526 15.6623 12.8526 15.5623C12.7526 15.4622 12.7026 15.3454 12.7026 15.212C12.2359 15.0785 11.9359 14.7783 11.8026 14.3113C11.8026 14.1778 11.8359 14.0611 11.9026 13.961C11.9693 13.8609 12.0693 13.7942 12.2026 13.7608C12.3359 13.7275 12.4526 13.7442 12.5526 13.8109C12.6526 13.8776 12.7193 13.9944 12.7526 14.1612C12.7859 14.328 12.9359 14.378 13.2026 14.3113H13.3026C13.5693 14.3113 13.7026 14.2446 13.7026 14.1111C13.6359 13.9777 13.4359 13.8776 13.1026 13.8109C12.3026 13.7442 11.9026 13.3772 11.9026 12.71C11.9026 12.4431 11.9693 12.2096 12.1026 12.0095C12.2359 11.8093 12.4359 11.6759 12.7026 11.6092C12.7026 11.4757 12.7526 11.359 12.8526 11.2589C12.9526 11.1588 13.0693 11.1088 13.2026 11.1088C13.3359 11.1088 13.4526 11.1588 13.5526 11.2589C13.6526 11.359 13.7026 11.4757 13.7026 11.6092C14.0359 11.7426 14.3026 11.9761 14.5026 12.3097ZM9.60258 19.7155C9.60258 19.6488 9.61925 19.5487 9.65258 19.4153C9.68592 19.2818 9.76925 19.2151 9.90258 19.2151C13.3026 18.0142 16.2693 16.3462 18.8026 14.2112H18.6026C18.4693 14.2112 18.3526 14.1612 18.2526 14.0611C18.1526 13.961 18.1026 13.8442 18.1026 13.7108C18.1026 13.5774 18.1526 13.4773 18.2526 13.4106C18.3526 13.3439 18.4693 13.3105 18.6026 13.3105L20.0026 13.2104C20.2026 13.2104 20.3359 13.2605 20.4026 13.3605C20.4693 13.4606 20.5026 13.5774 20.5026 13.7108L20.3026 15.1119C20.3026 15.2453 20.2526 15.3621 20.1526 15.4622C20.0526 15.5623 19.9359 15.5956 19.8026 15.5623C19.6693 15.5289 19.5693 15.4622 19.5026 15.3621C19.4359 15.262 19.4026 15.1453 19.4026 15.0118V14.9117C16.8026 17.1135 13.7359 18.8148 10.2026 20.0157C10.1359 20.0825 10.0359 20.0825 9.90258 20.0157C9.76925 19.949 9.66925 19.8489 9.60258 19.7155ZM13.2026 16.3128C12.4026 16.3128 11.7193 16.0293 11.1526 15.4622C10.5859 14.8951 10.3026 14.2112 10.3026 13.4106C10.3026 12.6099 10.5859 11.9261 11.1526 11.359C11.7193 10.7919 12.4026 10.5083 13.2026 10.5083C14.0026 10.5083 14.6859 10.7919 15.2526 11.359C15.8193 11.9261 16.1026 12.6099 16.1026 13.4106C16.1026 14.2112 15.8193 14.8951 15.2526 15.4622C14.6859 16.0293 14.0026 16.3128 13.2026 16.3128ZM13.8026 25.8203C13.8026 23.8187 13.8026 21.8171 13.8026 19.8156C13.8026 19.7489 13.8526 19.6821 13.9526 19.6154C14.0526 19.5487 14.1359 19.5153 14.2026 19.5153H15.8026C15.8693 19.5153 15.9526 19.5487 16.0526 19.6154C16.1526 19.6821 16.2026 19.7489 16.2026 19.8156V25.8203C16.2026 25.9537 16.1526 26.0538 16.0526 26.1205C15.9526 26.1872 15.8693 26.2206 15.8026 26.2206H14.2026C14.1359 26.2206 14.0526 26.1872 13.9526 26.1205C13.8526 26.0538 13.8026 25.9537 13.8026 25.8203ZM18.5026 26.2206C18.3693 26.2206 18.2693 26.1872 18.2026 26.1205C18.1359 26.0538 18.1026 25.9537 18.1026 25.8203V17.4137C18.1026 17.347 18.1359 17.2636 18.2026 17.1635C18.2693 17.0634 18.3693 17.0134 18.5026 17.0134H20.1026C20.1693 17.0134 20.2359 17.0634 20.3026 17.1635C20.3693 17.2636 20.4026 17.347 20.4026 17.4137V25.8203C20.4026 25.9537 20.3693 26.0538 20.3026 26.1205C20.2359 26.1872 20.1693 26.2206 20.1026 26.2206H18.5026ZM9.90258 21.8171H11.5026C11.6359 21.8171 11.7359 21.8505 11.8026 21.9172C11.8693 21.9839 11.9026 22.0507 11.9026 22.1174V25.8203C11.9026 25.9537 11.8693 26.0538 11.8026 26.1205C11.7359 26.1872 11.6359 26.2206 11.5026 26.2206H9.90258C9.83592 26.2206 9.76925 26.1872 9.70258 26.1205C9.63592 26.0538 9.60258 25.9537 9.60258 25.8203V22.1174C9.60258 22.0507 9.63592 21.9839 9.70258 21.9172C9.76925 21.8505 9.83592 21.8171 9.90258 21.8171ZM4.20258 14.5114L15.0026 6.70533L25.8026 14.5114C26.2693 14.845 26.7859 14.9785 27.3526 14.9117C27.9193 14.845 28.3693 14.5782 28.7026 14.1111C29.0359 13.6441 29.1526 13.127 29.0526 12.5599C28.9526 11.9928 28.6693 11.5424 28.2026 11.2088L16.2026 2.50204C15.8693 2.23516 15.4859 2.10172 15.0526 2.10172C14.6193 2.10172 14.2026 2.23516 13.8026 2.50204L1.80258 11.2088C1.33592 11.5424 1.05258 11.9928 0.952584 12.5599C0.852584 13.127 0.969251 13.6441 1.30258 14.1111C1.63592 14.5782 2.08592 14.845 2.65258 14.9117C3.21925 14.9785 3.73592 14.845 4.20258 14.5114Z" fill="#16243E"/>
</svg>
