<svg width="31" height="31" viewBox="0 0 31 31" fill="none" xmlns="http://www.w3.org/2000/svg">
<path d="M21.7063 12.1095C23.1729 12.1095 24.4229 11.5757 25.4563 10.5082C26.4896 9.44074 27.0063 8.17308 27.0063 6.70527C27.0063 5.23745 26.4896 3.96979 25.4563 2.90229C24.4229 1.83479 23.1563 1.30104 21.6563 1.30104C20.1563 1.30104 18.8896 1.83479 17.8563 2.90229C16.8229 3.96979 16.3063 5.23745 16.3063 6.70527C16.3063 8.17308 16.8229 9.44074 17.8563 10.5082C18.8896 11.5757 20.1729 12.1095 21.7063 12.1095ZM22.1063 3.90307V4.40347C22.3729 4.47018 22.5729 4.55358 22.7063 4.65366C22.8396 4.75374 22.9063 4.8705 22.9063 5.00393C22.9063 5.13737 22.8729 5.23745 22.8063 5.30417C22.7396 5.37089 22.6563 5.42093 22.5563 5.45429C22.4563 5.48765 22.3396 5.45429 22.2063 5.35421C22.0729 5.25413 21.9063 5.20409 21.7063 5.20409C21.4396 5.20409 21.2396 5.25413 21.1063 5.35421C20.9729 5.45429 20.9063 5.57104 20.9063 5.70448C20.9063 5.83792 20.9729 5.97136 21.1063 6.1048C21.2396 6.23823 21.4396 6.30495 21.7063 6.30495C22.1729 6.37167 22.5563 6.52179 22.8563 6.7553C23.1563 6.98882 23.3063 7.30573 23.3063 7.70605C23.3063 8.10636 23.1396 8.43995 22.8063 8.70683C22.6063 8.84027 22.3729 8.94035 22.1063 9.00707V9.50746C22.1063 9.6409 22.0563 9.74097 21.9563 9.80769C21.8563 9.87441 21.7563 9.90777 21.6563 9.90777C21.5563 9.90777 21.4729 9.87441 21.4063 9.80769C21.3396 9.74097 21.3063 9.6409 21.3063 9.50746V9.00707C21.0396 8.94035 20.8229 8.85695 20.6563 8.75687C20.4896 8.65679 20.4063 8.54003 20.4063 8.4066C20.4063 8.27316 20.4396 8.17308 20.5063 8.10636C20.5729 8.03964 20.6563 7.9896 20.7563 7.95624C20.8563 7.92288 20.9729 7.95624 21.1063 8.05632C21.2396 8.1564 21.4063 8.20644 21.6063 8.20644H21.7063C21.9063 8.20644 22.0896 8.1564 22.2563 8.05632C22.4229 7.95624 22.5063 7.83949 22.5063 7.70605C22.5063 7.57261 22.4396 7.45585 22.3063 7.35577C22.1729 7.2557 21.9396 7.1723 21.6063 7.10558C21.1396 7.10558 20.7729 6.97214 20.5063 6.70527C20.2396 6.43839 20.1063 6.1048 20.1063 5.70448C20.1063 5.30417 20.2729 4.97058 20.6063 4.7037C20.8063 4.57026 21.0396 4.47018 21.3063 4.40347V3.90307C21.3063 3.76964 21.3396 3.66956 21.4063 3.60284C21.4729 3.53612 21.5563 3.50276 21.6563 3.50276C21.7563 3.50276 21.8563 3.53612 21.9563 3.60284C22.0563 3.66956 22.1063 3.76964 22.1063 3.90307ZM28.9063 26.3206H28.7063V12.6099C28.7063 12.4764 28.6729 12.3764 28.6063 12.3097C28.5396 12.2429 28.4396 12.2096 28.3063 12.2096H25.1063C25.0396 12.2096 24.9563 12.2429 24.8563 12.3097C24.7563 12.3764 24.7063 12.4764 24.7063 12.6099V26.3206H24.0063V15.7123C24.0063 15.6456 23.9563 15.5622 23.8563 15.4621C23.7563 15.362 23.6396 15.312 23.5063 15.312H20.4063C20.2729 15.312 20.1563 15.362 20.0563 15.4621C19.9563 15.5622 19.9063 15.6456 19.9063 15.7123V26.3206H19.2063V22.4176C19.4729 22.2174 19.6563 21.9172 19.7563 21.5169C19.8563 21.1165 19.7896 20.6995 19.5563 20.2659C19.3229 19.8322 18.9729 19.5653 18.5063 19.4652C18.0396 19.3652 17.6063 19.4152 17.2063 19.6154L17.0063 19.7154C16.9396 18.7147 16.7563 17.6305 16.4563 16.4629C16.1563 15.2953 15.7063 14.1778 15.1063 13.1103C14.8396 12.5098 14.5396 11.9761 14.2063 11.509C14.5396 11.1754 14.7063 10.6584 14.7063 9.95781C14.7063 9.25726 14.5396 8.77355 14.2063 8.50667L14.0063 8.4066C14.3396 7.87284 14.6229 7.30573 14.8563 6.70527C15.0896 6.1048 15.1896 5.58772 15.1563 5.15405C15.1229 4.72038 14.9729 4.40347 14.7063 4.20331C14.2396 3.803 13.6063 3.86971 12.8063 4.40347L12.0063 4.90386C11.8063 5.03729 11.6729 5.10401 11.6063 5.10401L10.4063 4.30339C10.0729 4.16995 9.77292 4.10323 9.50625 4.10323C9.23958 4.10323 8.97292 4.16995 8.70625 4.30339L7.40625 5.10401C7.33958 5.10401 7.23958 5.03729 7.10625 4.90386L6.30625 4.40347C5.43958 3.86971 4.80625 3.803 4.40625 4.20331C4.13958 4.40347 3.98958 4.72038 3.95625 5.15405C3.92292 5.58772 4.00625 6.1048 4.20625 6.70527C4.40625 7.30573 4.70625 7.87284 5.10625 8.4066L4.80625 8.60675C4.53958 8.87363 4.40625 9.32398 4.40625 9.95781C4.40625 10.5916 4.53958 11.0753 4.80625 11.4089C4.47292 11.876 4.13958 12.4097 3.80625 13.0102C2.87292 14.8783 2.30625 16.8132 2.10625 18.8147H1.40625C1.13958 18.8147 0.90625 18.9148 0.70625 19.115C0.50625 19.3151 0.40625 19.5486 0.40625 19.8155V26.0204C0.40625 26.2873 0.50625 26.5208 0.70625 26.7209C0.90625 26.9211 1.13958 27.0212 1.40625 27.0212H3.20625C3.47292 27.0212 3.70625 26.9211 3.90625 26.7209C4.10625 26.5208 4.20625 26.2539 4.20625 25.9203V25.7201L5.40625 25.6201L10.2063 26.9211C10.3396 26.9878 10.5063 27.0212 10.7063 27.0212C11.1063 27.0212 11.4729 26.9211 11.8063 26.7209L15.2063 24.8194V26.3206H13.5063C13.4396 26.3206 13.3563 26.354 13.2563 26.4207C13.1563 26.4874 13.1063 26.5875 13.1063 26.7209V28.7225C13.1063 28.8559 13.1563 28.956 13.2563 29.0227C13.3563 29.0894 13.4396 29.1228 13.5063 29.1228H28.9063C29.0396 29.1228 29.1396 29.0894 29.2063 29.0227C29.2729 28.956 29.3063 28.8559 29.3063 28.7225V26.7209C29.3063 26.5875 29.2729 26.4874 29.2063 26.4207C29.1396 26.354 29.0396 26.3206 28.9063 26.3206ZM5.40625 9.20722C8.00625 9.80769 10.7729 9.80769 13.7063 9.20722C13.8396 9.34066 13.9063 9.57418 13.9063 9.90777C13.9063 10.2414 13.8729 10.4749 13.8063 10.6083C13.7396 10.7418 13.6729 10.8418 13.6063 10.9086C11.0729 11.509 8.33958 11.509 5.40625 10.9086C5.40625 10.8418 5.37292 10.7418 5.30625 10.6083C5.23958 10.4749 5.20625 10.2414 5.20625 9.90777C5.20625 9.57418 5.27292 9.34066 5.40625 9.20722ZM11.4063 26.0204C11.0729 26.2205 10.7396 26.2539 10.4063 26.1205L5.40625 24.8194L4.20625 24.9195V20.416L6.20625 20.0157L11.1063 21.3167C11.2396 21.3834 11.3729 21.5002 11.5063 21.667C11.6396 21.8338 11.6729 22.0172 11.6063 22.2174C11.5396 22.4176 11.4229 22.5677 11.2563 22.6678C11.0896 22.7678 10.9063 22.7845 10.7063 22.7178L7.30625 21.8171C7.17292 21.7504 7.05625 21.7504 6.95625 21.8171C6.85625 21.8838 6.78958 21.9672 6.75625 22.0673C6.72292 22.1674 6.73958 22.2674 6.80625 22.3675C6.87292 22.4676 6.97292 22.551 7.10625 22.6177L11.1063 23.6185C11.3063 23.6852 11.4896 23.7019 11.6563 23.6685C11.8229 23.6352 12.0729 23.5184 12.4063 23.3183L17.6063 20.3159C17.8063 20.1825 18.0229 20.1491 18.2563 20.2158C18.4896 20.2826 18.6729 20.4327 18.8063 20.6662C18.9396 20.8997 18.9729 21.1332 18.9063 21.3667C18.8396 21.6003 18.7063 21.7837 18.5063 21.9172L11.4063 26.0204ZM28.5063 28.3222H13.9063V27.1212H28.5063V28.3222Z" fill="#CAE366"/>
</svg>
